<svg width="41" height="21" viewBox="0 0 41 21" fill="none" xmlns="http://www.w3.org/2000/svg">
<g id="Group 20401" opacity="0.85">
<path id="Vector" d="M1.0394 13.4082C0.667902 13.304 0.316592 13.1387 2.88948e-05 12.9193C1.47702 15.0514 8.31495 20.2799 19.5975 20.3885C32.6443 20.4972 38.0736 12.5934 36.5145 6.80814C36.4881 6.664 36.4469 6.52294 36.3915 6.38715C11.1185 18.6095 1.0394 13.4082 1.0394 13.4082Z" fill="url(#paint0_linear_86_433)"/>
<path id="Vector_2" d="M16.0143 5.64027C5.93525 13.87 0.369173 12.9873 0.0136016 12.9194C0.330164 13.1388 0.681475 13.304 1.05297 13.4083C1.05297 13.4083 11.1184 18.6096 36.3777 6.33288C34.4904 0.167373 27.4337 -3.6623 16.0143 5.64027Z" fill="url(#paint1_linear_86_433)"/>
<path id="Vector_3" d="M27.8441 17.17L28.2543 16.8712L28.692 16.491L28.9655 16.2601L29.2527 15.9885L29.5535 15.6897L29.8681 15.3502C30.0869 15.1194 30.3057 14.8613 30.5109 14.6033C30.716 14.3453 30.9348 14.0465 31.1399 13.7477C31.3451 13.449 31.3451 13.449 31.4408 13.2996C31.5365 13.1502 31.6459 12.9872 31.728 12.8379C31.8101 12.6885 32.0973 12.1996 32.2614 11.8872C32.4255 11.5749 32.5759 11.2354 32.7127 10.9366C32.8494 10.6378 32.9862 10.3119 33.0956 10.0267C33.205 9.74153 33.3007 9.44276 33.3828 9.18473C33.5606 8.66867 33.67 8.2341 33.752 7.92175C33.7717 7.80242 33.7991 7.68448 33.8341 7.56866V7.44644C33.8486 7.3636 33.8956 7.28987 33.9649 7.24148C34.0341 7.19309 34.1199 7.17401 34.2033 7.18841C34.2868 7.20282 34.361 7.24954 34.4097 7.31831C34.4585 7.38707 34.4777 7.47224 34.4632 7.55508V7.69089C34.4632 7.78595 34.4632 7.90817 34.3674 8.07114C34.2717 8.2341 34.135 8.83164 33.9435 9.42918L33.6016 10.2712C33.4785 10.5563 33.3281 10.8687 33.1776 11.181C33.0272 11.4934 32.8494 11.8193 32.6716 12.1317C32.4939 12.444 32.2887 12.77 32.0836 13.0823C31.8784 13.3947 31.8784 13.3947 31.769 13.5576L31.4408 13.9922C31.222 14.291 30.9895 14.5761 30.7707 14.8342C30.5519 15.0922 30.3057 15.3502 30.0869 15.5811L29.745 15.907L29.4168 16.1922L29.1159 16.4502L28.8424 16.6811L28.3637 17.0478L27.9535 17.333H27.8577C27.836 17.3348 27.8144 17.3279 27.7977 17.3139C27.781 17.2999 27.7707 17.2799 27.7688 17.2583C27.767 17.2367 27.7739 17.2152 27.788 17.1987C27.8021 17.1821 27.8223 17.1718 27.8441 17.17Z" fill="url(#paint2_linear_86_433)"/>
<path id="Vector_4" d="M23.0374 17.181L23.4275 16.9531L23.8437 16.6629L24.1037 16.4868L24.3768 16.2796L24.6629 16.0517L24.962 15.7926C25.1701 15.6165 25.3782 15.4196 25.5732 15.2228C25.7683 15.0259 25.9764 14.798 26.1714 14.57C26.3665 14.3421 26.3665 14.3421 26.4575 14.2281C26.5485 14.1142 26.6526 13.9898 26.7306 13.8759C26.8086 13.7619 27.0817 13.3889 27.2378 13.1506C27.3938 12.9123 27.5369 12.6533 27.6669 12.4253C27.797 12.1974 27.927 11.9487 28.031 11.7311C28.1351 11.5136 28.2261 11.2856 28.3041 11.0888C28.4732 10.695 28.5772 10.3635 28.6552 10.1252C28.6739 10.0341 28.7 9.94417 28.7333 9.85581V9.76256C28.747 9.69936 28.7918 9.64311 28.8576 9.60619C28.9235 9.56927 29.005 9.55471 29.0844 9.5657C29.1637 9.57669 29.2343 9.61234 29.2806 9.6648C29.327 9.71726 29.3452 9.78224 29.3314 9.84544V9.94905C29.3314 10.0216 29.3314 10.1148 29.2404 10.2392C29.1494 10.3635 29.0193 10.8194 28.8373 11.2753L28.5122 11.9176C28.3951 12.1352 28.2521 12.3735 28.1091 12.6118C27.966 12.8501 27.797 13.0988 27.6279 13.3371C27.4588 13.5754 27.2638 13.8241 27.0687 14.0624C26.8737 14.3007 26.8737 14.3007 26.7696 14.425L26.4575 14.7565C26.2494 14.9845 26.0284 15.2021 25.8203 15.3989C25.6122 15.5958 25.3782 15.7926 25.1701 15.9688L24.845 16.2174L24.5329 16.435L24.2468 16.6319L23.9867 16.808L23.5316 17.0877L23.1414 17.3053H23.0504C23.0297 17.3067 23.0092 17.3015 22.9933 17.2908C22.9775 17.2801 22.9676 17.2648 22.9659 17.2483C22.9642 17.2319 22.9707 17.2155 22.9841 17.2029C22.9975 17.1902 23.0167 17.1824 23.0374 17.181Z" fill="url(#paint3_linear_86_433)"/>
<path id="Vector_5" d="M21.2113 12.4984L21.1293 12.5798L20.8831 12.8107L20.5139 13.1502L20.0079 13.5848C19.8164 13.7342 19.6249 13.9107 19.4061 14.0737L18.7087 14.6033L17.9428 15.133L17.1359 15.649C16.8487 15.812 16.5752 15.9885 16.3017 16.1243L15.8778 16.3552L15.4675 16.5453L15.0709 16.7354L14.6743 16.8984C14.438 17.0064 14.1961 17.1016 13.9495 17.1836L13.3477 17.3873L12.8554 17.5095L12.4314 17.6182V17.4959L12.8417 17.3601L13.3204 17.2108L13.9221 16.9799C14.1546 16.8984 14.3734 16.7762 14.6333 16.6675L15.0025 16.491L15.3854 16.2737L15.782 16.07L16.1786 15.8256C16.4521 15.6762 16.712 15.486 16.9855 15.3231L17.7513 14.7663L18.4762 14.2095C18.695 14.0194 18.9275 13.8428 19.1189 13.6663L19.6933 13.1502C19.8711 13.0008 20.0215 12.8379 20.1583 12.7156L20.5139 12.3625L20.719 12.1317L20.8011 12.0502C20.8304 12.0202 20.8655 11.9964 20.9042 11.9801C20.943 11.9638 20.9846 11.9555 21.0267 11.9555C21.0688 11.9555 21.1104 11.9638 21.1492 11.9801C21.188 11.9964 21.223 12.0202 21.2524 12.0502C21.3072 12.1122 21.3374 12.1918 21.3374 12.2743C21.3374 12.3567 21.3072 12.4364 21.2524 12.4984H21.2113Z" fill="url(#paint4_linear_86_433)"/>
<path id="Vector_6" d="M25.3206 11.4075L25.2676 11.5021L25.1058 11.7726L24.8616 12.1717L24.5206 12.6886C24.3884 12.8694 24.2619 13.0769 24.1092 13.276L23.6245 13.9207L23.0814 14.5777L22.5004 15.229C22.2892 15.4405 22.0926 15.6629 21.8874 15.8454L21.5737 16.1482L21.263 16.4087L20.9641 16.6666L20.6595 16.8981C20.4803 17.0466 20.2935 17.1836 20.1 17.3086L19.6286 17.6172L19.2336 17.8262L18.8942 18.0094L18.8685 17.8899L19.1905 17.6826L19.5682 17.4495L20.0338 17.1144C20.2154 16.9925 20.3767 16.8332 20.5759 16.6798L20.8543 16.44L21.1358 16.158L21.4319 15.8867L21.7194 15.5756C21.9218 15.3798 22.1038 15.1467 22.3033 14.9376L22.8407 14.254L23.343 13.5778C23.4901 13.3521 23.6516 13.1372 23.7781 12.9298L24.1605 12.3208C24.281 12.1424 24.3753 11.9557 24.4664 11.8113L24.6961 11.4014L24.8228 11.1384L24.8758 11.0438C24.8946 11.0091 24.9195 10.9795 24.9492 10.9565C24.9789 10.9335 25.0128 10.9178 25.0487 10.9101C25.0847 10.9025 25.122 10.9031 25.1586 10.912C25.1951 10.9209 25.2301 10.9378 25.2615 10.9618C25.3213 11.0124 25.3639 11.0848 25.3812 11.1654C25.3986 11.2461 25.3895 11.3295 25.3557 11.4L25.3206 11.4075Z" fill="url(#paint5_linear_86_433)"/>
<path id="Vector_7" d="M8.71166 16.3009H9.03988H9.40914L9.88779 16.2329L10.4485 16.0971C10.6575 16.0414 10.863 15.9734 11.0639 15.8934L11.7067 15.649L12.3631 15.3502C13.1608 14.9819 13.937 14.5693 14.688 14.1144C15.0026 13.9379 15.2487 13.7749 15.4265 13.6662L15.7 13.4897C15.7727 13.4434 15.8608 13.4274 15.9453 13.4452C16.0298 13.463 16.1038 13.5132 16.1513 13.5848C16.1741 13.6195 16.1896 13.6583 16.1971 13.699C16.2046 13.7397 16.2039 13.7815 16.195 13.8219C16.1861 13.8624 16.1692 13.9006 16.1453 13.9345C16.1213 13.9684 16.0908 13.9973 16.0556 14.0193L15.7547 14.1823L14.9752 14.6033C14.3188 14.9292 13.4435 15.3502 12.5272 15.7033L11.8434 15.9613L11.1733 16.165L10.5306 16.328C10.3367 16.3748 10.1404 16.4111 9.94249 16.4367H9.43648C9.30437 16.4435 9.17199 16.4435 9.03988 16.4367H8.79372H8.71166V16.3009Z" fill="url(#paint6_linear_86_433)"/>
<path id="Vector_8" d="M33.9573 7.74513L33.5743 7.40562L32.4939 6.52289C31.4077 5.67722 30.2552 4.91884 29.0476 4.25497C28.7194 4.06484 28.3912 3.90187 28.063 3.73891L27.557 3.50804L27.0646 3.29075C26.7364 3.16853 26.4219 3.04631 26.1073 2.95124L25.2457 2.7068L24.8491 2.61173H24.4799H24.1654H23.8918H23.5226H23.3722V2.48951H24.1654H24.4936H24.8628L25.2731 2.57099C25.5466 2.57099 25.8612 2.69322 26.1757 2.78828C26.4902 2.88334 26.8185 2.9784 27.1604 3.10063L27.6664 3.29075L28.1861 3.49446C28.5279 3.65743 28.8835 3.80681 29.2254 3.98336C30.4746 4.61442 31.6726 5.34089 32.8085 6.15622C33.2735 6.48215 33.6564 6.78092 33.9162 6.98462L34.2171 7.22907L34.3265 7.31056C34.3842 7.37109 34.4164 7.45127 34.4164 7.53463C34.4164 7.61799 34.3842 7.69817 34.3265 7.75871C34.2984 7.7883 34.2645 7.81188 34.2268 7.82799C34.1892 7.8441 34.1487 7.85242 34.1077 7.85242C34.0667 7.85242 34.0262 7.8441 33.9885 7.82799C33.9509 7.81188 33.917 7.7883 33.8889 7.75871L33.9573 7.74513Z" fill="url(#paint7_linear_86_433)"/>
<path id="Vector_9" d="M30.2922 9.17127L29.9093 8.89966C29.6632 8.72312 29.3076 8.47867 28.87 8.20706C27.8075 7.50931 26.7072 6.87006 25.5741 6.29223C25.2732 6.12926 24.9587 5.97988 24.6441 5.84407L23.7278 5.45024C23.427 5.32801 23.1261 5.21937 22.8526 5.13789L22.4423 5.01567L22.0457 4.90703C21.8169 4.84475 21.5838 4.79936 21.3482 4.77122H21.061H20.3362H20.4593C20.5777 4.76429 20.6965 4.76429 20.8149 4.77122H21.0747H21.3756C21.5944 4.77122 21.8269 4.77122 22.0867 4.87986L22.497 4.97493L22.921 4.90703C23.2267 4.9807 23.5281 5.07137 23.8236 5.17863L24.7809 5.53172L25.7382 5.95272C26.9099 6.48279 28.0513 7.07671 29.1572 7.73175L30.2512 8.39719L30.6615 8.65521C30.7277 8.70415 30.7729 8.77604 30.7881 8.85657C30.8033 8.9371 30.7874 9.02037 30.7436 9.08979C30.7261 9.12934 30.7006 9.16486 30.6686 9.19412C30.6366 9.22337 30.5988 9.24573 30.5577 9.25977C30.5166 9.27381 30.473 9.27922 30.4296 9.27568C30.3863 9.27213 30.3442 9.2597 30.3059 9.23917L30.2922 9.17127Z" fill="url(#paint8_linear_86_433)"/>
<path id="Vector_10" d="M25.656 10.8823L25.3141 10.6107L24.3705 9.90456C23.9739 9.61937 23.4952 9.30702 23.0029 8.98109L22.2097 8.4922L21.3618 8.01688L20.9242 7.78602L20.4865 7.58231L19.6249 7.21564L19.201 7.06626L18.7907 6.93045H18.5993H18.4078H18.2163H18.0385H17.8608H17.6967H17.3821H16.8624C16.7532 6.92244 16.6435 6.92244 16.5342 6.93045H16.4248C16.4052 6.93072 16.3862 6.92402 16.3711 6.91157C16.3561 6.89912 16.346 6.88173 16.3427 6.86255H16.4522H16.794H17.4505H17.765H17.9428H18.1206H18.3121H18.5035H18.7087H18.9138L19.3378 6.98477L19.7754 7.12057C20.0763 7.21564 20.3771 7.33786 20.678 7.46008L21.1293 7.65021L21.5532 7.67737L22.4422 8.11194L23.2764 8.57368C23.8234 8.88603 24.3158 9.1848 24.7397 9.4564C25.1637 9.72801 25.4919 9.95888 25.7381 10.1218L26.1073 10.3935C26.1741 10.4423 26.2188 10.5154 26.2316 10.5968C26.2444 10.6782 26.2243 10.7613 26.1757 10.828C26.1133 10.8825 26.0331 10.9125 25.95 10.9125C25.867 10.9125 25.7868 10.8825 25.7244 10.828L25.656 10.8823Z" fill="url(#paint9_linear_86_433)"/>
<path id="Vector_11" d="M20.7598 12.512H20.6914L20.5 12.3354C20.3222 12.1725 20.0623 11.9687 19.7341 11.7243L19.1871 11.3712C18.9843 11.2336 18.7743 11.1066 18.558 10.991L17.8605 10.6379L17.1084 10.3391L16.7254 10.2033L16.3425 10.0811C16.0827 10.0811 15.8228 9.94527 15.5767 9.90453L14.8519 9.7823H14.51H13.621H13.1971H12.8142V9.7144H13.1971H13.6347H14.2091H14.8792L15.6314 9.79588C15.8912 9.79588 16.1647 9.87736 16.4382 9.93168L16.8485 10.0403L17.2451 10.149C17.5145 10.2298 17.7793 10.325 18.0383 10.4342L18.8178 10.5021C19.0503 10.6243 19.2828 10.7329 19.488 10.8552L20.076 11.2082C20.3683 11.3887 20.6513 11.5836 20.9239 11.7922L21.1154 11.9552H21.1974C21.2609 12.011 21.2995 12.0896 21.3046 12.1736C21.3097 12.2577 21.281 12.3403 21.2248 12.4033C21.1686 12.4664 21.0895 12.5046 21.0048 12.5097C20.9202 12.5148 20.837 12.4863 20.7735 12.4305L20.7598 12.512Z" fill="url(#paint10_linear_86_433)"/>
<path id="Vector_12" d="M15.659 13.8565L15.3992 13.7479L14.688 13.4627C14.1 13.2318 13.3205 12.9467 12.4999 12.6751C11.7701 12.4301 11.0256 12.2306 10.2707 12.0775H9.84679H9.51857H9.24505C9.23905 12.0672 9.23589 12.0555 9.23589 12.0436C9.23589 12.0316 9.23905 12.0199 9.24505 12.0096H9.51857C9.63208 11.9954 9.74694 11.9954 9.86046 12.0096H10.2981C11.0782 12.1045 11.8506 12.2542 12.6093 12.4578C13.4299 12.6615 14.2504 12.8923 14.8658 13.0825L15.6043 13.3133L15.8778 13.3948C15.919 13.407 15.9573 13.4275 15.9902 13.4549C16.0231 13.4824 16.05 13.5162 16.0692 13.5544C16.0884 13.5926 16.0996 13.6343 16.1019 13.6769C16.1043 13.7195 16.0979 13.7622 16.083 13.8022C16.0705 13.8416 16.0504 13.878 16.0237 13.9096C15.997 13.9411 15.9643 13.9671 15.9274 13.9861C15.8905 14.005 15.8502 14.0165 15.8089 14.0199C15.7675 14.0233 15.7259 14.0186 15.6864 14.0059L15.659 13.8565Z" fill="url(#paint11_linear_86_433)"/>
<path id="Vector_13" d="M1.12143 13.3132H1.21717L1.53171 13.4354C1.93042 13.5758 2.33678 13.6937 2.74886 13.7885C3.28222 13.9108 3.93866 14.0194 4.70451 14.1145C5.47036 14.2095 6.33193 14.2503 7.27556 14.2639H7.98672H8.73888H9.5184H10.3116L11.1322 14.1824L11.9801 13.9922H12.404L12.8416 13.9243L13.7032 13.8021L14.5785 13.6392L15.4674 13.4626L16.37 13.2725L16.8213 13.1774L17.2726 13.0688L18.1752 12.8379L19.0915 12.607L19.9941 12.349L20.8967 12.0774L21.7993 11.8058L22.7019 11.507L23.5909 11.2218L24.4798 10.9095C25.6422 10.4885 26.7773 10.0403 27.8851 9.61935L29.4851 8.94033L29.8817 8.77737L30.2647 8.61441L31.0168 8.2749L31.7417 7.94896L32.4528 7.63662C32.9178 7.41933 33.3554 7.20204 33.8204 7.01192L34.4495 6.71315L35.0375 6.41438L36.1316 5.87116L37.0889 5.39585L37.9095 4.97486L39.3318 4.11929C39.4805 4.04185 39.6541 4.02625 39.8144 4.07591C39.9747 4.12558 40.1085 4.23644 40.1865 4.38411C40.2645 4.53178 40.2802 4.70417 40.2302 4.86334C40.1802 5.02252 40.0685 5.15545 39.9198 5.23288L38.3471 5.99339L37.5265 6.4008L36.5419 6.86253L35.4205 7.39217L34.8187 7.66378L34.176 7.94896L32.8084 8.5465L32.0836 8.85885L31.3451 9.1712L30.5792 9.48355L30.1826 9.64651L29.786 9.7959L28.1449 10.4342C27.0235 10.8416 25.861 11.2762 24.6712 11.6564C24.3704 11.7515 24.0832 11.8601 23.7686 11.9416L22.9207 12.2268L22.0045 12.4984L21.0882 12.7564L20.1719 13.0145L19.2419 13.2317L18.312 13.4626L17.3957 13.6663L16.9307 13.7614L16.4794 13.8429L15.5631 14.0194C15.2623 14.0194 14.9614 14.128 14.6605 14.1688L13.7716 14.3046L12.8827 14.4268H12.445H12.0211L11.1732 14.5083H10.339H9.53208H8.73888H7.97304H7.24822C6.37442 14.488 5.50241 14.4199 4.63613 14.3046C3.97331 14.2129 3.31594 14.086 2.66681 13.9243C2.24541 13.8145 1.83002 13.683 1.4223 13.5305L1.09409 13.3947H0.984679C0.96321 13.3743 0.949042 13.3474 0.944308 13.3183C0.939578 13.2891 0.94454 13.2592 0.958456 13.2331C0.972372 13.207 0.994471 13.1861 1.02141 13.1736C1.04836 13.1611 1.07868 13.1577 1.10776 13.1638L1.12143 13.3132Z" fill="url(#paint12_linear_86_433)"/>
<path id="Vector_14" style="mix-blend-mode:screen" d="M19.5839 20.3885C32.4939 20.4972 37.9643 12.7292 36.5967 6.90318L37.5813 6.44145L38.4019 6.03404L39.9883 5.16489C40.137 5.08745 40.2486 4.95453 40.2987 4.79535C40.3487 4.63617 40.333 4.46379 40.255 4.31612C40.177 4.16844 40.0431 4.05759 39.8828 4.00792C39.7225 3.95826 39.5489 3.97386 39.4002 4.0513L37.8685 4.85254L37.048 5.27354L36.1864 5.70811C34.0393 -0.117882 27.0783 -3.44508 16.0145 5.5723C5.93543 13.802 0.369357 12.9193 0.0137849 12.8514C1.46342 15.0514 8.30135 20.2799 19.5839 20.3885Z" fill="url(#paint13_radial_86_433)"/>
</g>
<defs>
<linearGradient id="paint0_linear_86_433" x1="24.7351" y1="12.378" x2="42.751" y2="5.60162" gradientUnits="userSpaceOnUse">
<stop offset="0.08" stop-color="#B0E355"/>
<stop offset="0.21" stop-color="#ADE152"/>
<stop offset="0.32" stop-color="#A2DA4A"/>
<stop offset="0.42" stop-color="#91CE3B"/>
<stop offset="0.52" stop-color="#79BE27"/>
<stop offset="0.61" stop-color="#5AA90D"/>
<stop offset="0.65" stop-color="#4A9F00"/>
<stop offset="1" stop-color="#346D0A"/>
</linearGradient>
<linearGradient id="paint1_linear_86_433" x1="5.27015" y1="0.410898" x2="56.5856" y2="-4.17672" gradientUnits="userSpaceOnUse">
<stop offset="0.08" stop-color="#B0E355"/>
<stop offset="0.21" stop-color="#ADE152"/>
<stop offset="0.32" stop-color="#A2DA4A"/>
<stop offset="0.42" stop-color="#91CE3B"/>
<stop offset="0.52" stop-color="#79BE27"/>
<stop offset="0.61" stop-color="#5AA90D"/>
<stop offset="0.65" stop-color="#4A9F00"/>
<stop offset="1" stop-color="#346D0A"/>
</linearGradient>
<linearGradient id="paint2_linear_86_433" x1="11.6011" y1="-0.674232" x2="45.0364" y2="-4.54647" gradientUnits="userSpaceOnUse">
<stop offset="0.08" stop-color="#B0E355"/>
<stop offset="0.21" stop-color="#ADE152"/>
<stop offset="0.32" stop-color="#A2DA4A"/>
<stop offset="0.42" stop-color="#91CE3B"/>
<stop offset="0.52" stop-color="#79BE27"/>
<stop offset="0.61" stop-color="#5AA90D"/>
<stop offset="0.65" stop-color="#4A9F00"/>
<stop offset="1" stop-color="#346D0A"/>
</linearGradient>
<linearGradient id="paint3_linear_86_433" x1="7.59216" y1="3.56702" x2="39.1542" y2="-0.988793" gradientUnits="userSpaceOnUse">
<stop offset="0.08" stop-color="#B0E355"/>
<stop offset="0.21" stop-color="#ADE152"/>
<stop offset="0.32" stop-color="#A2DA4A"/>
<stop offset="0.42" stop-color="#91CE3B"/>
<stop offset="0.52" stop-color="#79BE27"/>
<stop offset="0.61" stop-color="#5AA90D"/>
<stop offset="0.65" stop-color="#4A9F00"/>
<stop offset="1" stop-color="#346D0A"/>
</linearGradient>
<linearGradient id="paint4_linear_86_433" x1="9.16321" y1="25.4009" x2="28.896" y2="10.1548" gradientUnits="userSpaceOnUse">
<stop offset="0.08" stop-color="#B0E355"/>
<stop offset="0.21" stop-color="#ADE152"/>
<stop offset="0.32" stop-color="#A2DA4A"/>
<stop offset="0.42" stop-color="#91CE3B"/>
<stop offset="0.52" stop-color="#79BE27"/>
<stop offset="0.61" stop-color="#5AA90D"/>
<stop offset="0.65" stop-color="#4A9F00"/>
<stop offset="1" stop-color="#346D0A"/>
</linearGradient>
<linearGradient id="paint5_linear_86_433" x1="17.7375" y1="26.2141" x2="33.5432" y2="9.78654" gradientUnits="userSpaceOnUse">
<stop offset="0.08" stop-color="#B0E355"/>
<stop offset="0.21" stop-color="#ADE152"/>
<stop offset="0.32" stop-color="#A2DA4A"/>
<stop offset="0.42" stop-color="#91CE3B"/>
<stop offset="0.52" stop-color="#79BE27"/>
<stop offset="0.61" stop-color="#5AA90D"/>
<stop offset="0.65" stop-color="#4A9F00"/>
<stop offset="1" stop-color="#346D0A"/>
</linearGradient>
<linearGradient id="paint6_linear_86_433" x1="-0.746217" y1="27.1608" x2="29.6201" y2="12.2362" gradientUnits="userSpaceOnUse">
<stop offset="0.08" stop-color="#B0E355"/>
<stop offset="0.21" stop-color="#ADE152"/>
<stop offset="0.32" stop-color="#A2DA4A"/>
<stop offset="0.42" stop-color="#91CE3B"/>
<stop offset="0.52" stop-color="#79BE27"/>
<stop offset="0.61" stop-color="#5AA90D"/>
<stop offset="0.65" stop-color="#4A9F00"/>
<stop offset="1" stop-color="#346D0A"/>
</linearGradient>
<linearGradient id="paint7_linear_86_433" x1="10.7638" y1="-7.98547" x2="44.1906" y2="-11.8555" gradientUnits="userSpaceOnUse">
<stop offset="0.08" stop-color="#B0E355"/>
<stop offset="0.21" stop-color="#ADE152"/>
<stop offset="0.32" stop-color="#A2DA4A"/>
<stop offset="0.42" stop-color="#91CE3B"/>
<stop offset="0.52" stop-color="#79BE27"/>
<stop offset="0.61" stop-color="#5AA90D"/>
<stop offset="0.65" stop-color="#4A9F00"/>
<stop offset="1" stop-color="#346D0A"/>
</linearGradient>
<linearGradient id="paint8_linear_86_433" x1="10.9222" y1="-6.59341" x2="45.2611" y2="-4.50591" gradientUnits="userSpaceOnUse">
<stop offset="0.08" stop-color="#B0E355"/>
<stop offset="0.21" stop-color="#ADE152"/>
<stop offset="0.32" stop-color="#A2DA4A"/>
<stop offset="0.42" stop-color="#91CE3B"/>
<stop offset="0.52" stop-color="#79BE27"/>
<stop offset="0.61" stop-color="#5AA90D"/>
<stop offset="0.65" stop-color="#4A9F00"/>
<stop offset="1" stop-color="#346D0A"/>
</linearGradient>
<linearGradient id="paint9_linear_86_433" x1="11.0743" y1="-5.29436" x2="40.9853" y2="4.72246" gradientUnits="userSpaceOnUse">
<stop offset="0.08" stop-color="#B0E355"/>
<stop offset="0.21" stop-color="#ADE152"/>
<stop offset="0.32" stop-color="#A2DA4A"/>
<stop offset="0.42" stop-color="#91CE3B"/>
<stop offset="0.52" stop-color="#79BE27"/>
<stop offset="0.61" stop-color="#5AA90D"/>
<stop offset="0.65" stop-color="#4A9F00"/>
<stop offset="1" stop-color="#346D0A"/>
</linearGradient>
<linearGradient id="paint10_linear_86_433" x1="11.2833" y1="-3.48006" x2="32.858" y2="2.93144" gradientUnits="userSpaceOnUse">
<stop offset="0.08" stop-color="#B0E355"/>
<stop offset="0.21" stop-color="#ADE152"/>
<stop offset="0.32" stop-color="#A2DA4A"/>
<stop offset="0.42" stop-color="#91CE3B"/>
<stop offset="0.52" stop-color="#79BE27"/>
<stop offset="0.61" stop-color="#5AA90D"/>
<stop offset="0.65" stop-color="#4A9F00"/>
<stop offset="1" stop-color="#346D0A"/>
</linearGradient>
<linearGradient id="paint11_linear_86_433" x1="5.62414" y1="0.0589162" x2="26.8467" y2="5.38585" gradientUnits="userSpaceOnUse">
<stop offset="0.08" stop-color="#B0E355"/>
<stop offset="0.21" stop-color="#ADE152"/>
<stop offset="0.32" stop-color="#A2DA4A"/>
<stop offset="0.42" stop-color="#91CE3B"/>
<stop offset="0.52" stop-color="#79BE27"/>
<stop offset="0.61" stop-color="#5AA90D"/>
<stop offset="0.65" stop-color="#4A9F00"/>
<stop offset="1" stop-color="#346D0A"/>
</linearGradient>
<linearGradient id="paint12_linear_86_433" x1="-16.6721" y1="16.6016" x2="39.9185" y2="3.77806" gradientUnits="userSpaceOnUse">
<stop offset="0.08" stop-color="#B0E355"/>
<stop offset="0.21" stop-color="#ADE152"/>
<stop offset="0.32" stop-color="#A2DA4A"/>
<stop offset="0.42" stop-color="#91CE3B"/>
<stop offset="0.52" stop-color="#79BE27"/>
<stop offset="0.61" stop-color="#5AA90D"/>
<stop offset="0.65" stop-color="#4A9F00"/>
<stop offset="1" stop-color="#346D0A"/>
</linearGradient>
<radialGradient id="paint13_radial_86_433" cx="0" cy="0" r="1" gradientUnits="userSpaceOnUse" gradientTransform="translate(78.8829 2.17072) rotate(171.982) scale(83.2744 82.7565)">
<stop offset="0.0390761" stop-color="#00533A"/>
<stop offset="0.556673" stop-color="#08475D"/>
<stop offset="0.666519" stop-color="#1E5161"/>
<stop offset="0.766969" stop-color="#416166"/>
<stop offset="0.846972" stop-color="#6E786E"/>
<stop offset="0.912899" stop-color="#AFB078"/>
<stop offset="0.997941" stop-color="#D3C07E"/>
</radialGradient>
</defs>
</svg>
