<svg width="26" height="35" viewBox="0 0 26 35" fill="none" xmlns="http://www.w3.org/2000/svg">
<g id="Group 20402" opacity="0.85">
<path id="Vector" d="M3.24832 34.1075C2.63291 31.0655 6.44847 20.921 13.5873 15.5975C17.8862 12.3214 21.3561 8.09448 23.7211 3.25287V3.07633C22.5996 5.42574 11.0162 5.79241 4.26033 13.1666C-2.35878 20.3913 2.93378 33.4285 3.24832 34.1075Z" fill="url(#paint0_linear_86_448)"/>
<path id="Vector_2" d="M13.5871 15.6518C6.462 20.9753 2.63276 31.1199 3.24817 34.1075C4.61576 28.7569 16.0077 25.3074 20.4934 20.758C26.333 14.8641 24.0765 4.70597 23.7072 3.21213C21.3587 8.08675 17.8927 12.3472 13.5871 15.6518Z" fill="url(#paint1_linear_86_448)"/>
<path id="Vector_3" d="M21.0951 8.01953L14.9683 8.10101L20.9857 7.61212C21.0598 7.61041 21.1326 7.63174 21.1939 7.67313C21.2552 7.71453 21.3019 7.77392 21.3276 7.84299C21.3381 7.87435 21.3412 7.90768 21.3368 7.94044C21.3324 7.97319 21.3205 8.00451 21.302 8.03201C21.2835 8.05951 21.259 8.08247 21.2303 8.09913C21.2015 8.1158 21.1693 8.12573 21.1361 8.12817L21.0951 8.01953Z" fill="url(#paint2_linear_86_448)"/>
<path id="Vector_4" d="M18.4558 11.1296L11.3307 11.2926L18.3464 10.7358C18.4214 10.7295 18.4964 10.749 18.5586 10.7911C18.6208 10.8331 18.6666 10.8951 18.6883 10.9667C18.6992 10.9972 18.7026 11.03 18.6982 11.0621C18.6938 11.0942 18.6817 11.1248 18.663 11.1514C18.6443 11.178 18.6194 11.1997 18.5905 11.2148C18.5616 11.2299 18.5295 11.238 18.4969 11.2383L18.4558 11.1296Z" fill="url(#paint3_linear_86_448)"/>
<path id="Vector_5" d="M15.1324 14.5926L8.18508 14.2395H15.023C15.0964 14.2433 15.1666 14.2704 15.2233 14.3168C15.2799 14.3633 15.32 14.4267 15.3375 14.4976C15.3437 14.5293 15.3426 14.562 15.3343 14.5933C15.3261 14.6245 15.311 14.6536 15.29 14.6783C15.269 14.703 15.2428 14.7228 15.2132 14.7361C15.1835 14.7495 15.1513 14.7562 15.1187 14.7556L15.1324 14.5926Z" fill="url(#paint4_linear_86_448)"/>
<path id="Vector_6" d="M11.9322 17.2951L4.54724 19.0605L11.7544 16.9148C11.8269 16.9007 11.9021 16.9103 11.9686 16.9421C12.0352 16.9739 12.0896 17.0263 12.1237 17.0914C12.1394 17.1194 12.1487 17.1505 12.1509 17.1825C12.1531 17.2145 12.1481 17.2465 12.1363 17.2764C12.1246 17.3063 12.1063 17.3332 12.0828 17.3552C12.0593 17.3772 12.0313 17.3938 12.0006 17.4037L11.9322 17.2951Z" fill="url(#paint5_linear_86_448)"/>
<path id="Vector_7" d="M9.1971 20.1199L3.39854 22.5643H3.31648L8.86888 19.7668C8.93755 19.7373 9.01432 19.732 9.08645 19.7517C9.15857 19.7715 9.22174 19.8151 9.26547 19.8754C9.27936 19.9183 9.28028 19.9644 9.26813 20.0078C9.25598 20.0512 9.23129 20.0902 9.1971 20.1199Z" fill="url(#paint6_linear_86_448)"/>
<path id="Vector_8" d="M6.54411 24.4248L3.64483 25.8507C3.64483 25.8507 3.64483 25.8507 3.57645 25.8507L6.18854 23.9902C6.24931 23.9517 6.32241 23.9374 6.39334 23.95C6.46427 23.9625 6.52785 24.0011 6.57147 24.0581C6.5997 24.0782 6.6227 24.1047 6.63857 24.1354C6.65444 24.1661 6.66272 24.2001 6.66272 24.2346C6.66272 24.2691 6.65444 24.3032 6.63857 24.3339C6.6227 24.3646 6.5997 24.3911 6.57147 24.4112L6.54411 24.4248Z" fill="url(#paint7_linear_86_448)"/>
<path id="Vector_9" d="M22.4491 13.8456L20.7806 8.30482C20.7697 8.27425 20.7663 8.24153 20.7708 8.2094C20.7752 8.17727 20.7872 8.14666 20.806 8.12009C20.8247 8.09353 20.8495 8.07178 20.8784 8.05667C20.9073 8.04156 20.9394 8.03352 20.9721 8.03321C21.0471 8.02693 21.122 8.04643 21.1842 8.08847C21.2465 8.1305 21.2923 8.1925 21.314 8.26408L22.5585 13.8592C22.5411 13.8684 22.5212 13.8721 22.5016 13.8696C22.482 13.8672 22.4637 13.8588 22.4491 13.8456Z" fill="url(#paint8_linear_86_448)"/>
<path id="Vector_10" d="M19.3174 16.9285L17.7036 11.4012C17.6954 11.3697 17.6944 11.3367 17.7008 11.3047C17.7072 11.2727 17.7207 11.2425 17.7404 11.2164C17.7601 11.1904 17.7855 11.169 17.8146 11.154C17.8437 11.139 17.8759 11.1306 17.9087 11.1296C17.982 11.124 18.0549 11.144 18.1149 11.1862C18.1748 11.2283 18.218 11.29 18.237 11.3605L19.4131 16.9149L19.3174 16.9285Z" fill="url(#paint9_linear_86_448)"/>
<path id="Vector_11" d="M16.5547 19.4136L15.0093 14.4839C14.9988 14.4526 14.9956 14.4193 15.0001 14.3865C15.0045 14.3537 15.0164 14.3224 15.0349 14.2949C15.0533 14.2674 15.0779 14.2445 15.1066 14.2278C15.1354 14.2111 15.1676 14.2012 15.2007 14.1988C15.2753 14.1949 15.3491 14.2154 15.4108 14.2571C15.4726 14.2987 15.5189 14.3594 15.5426 14.4296L16.6641 19.4001C16.6641 19.4001 16.5683 19.4408 16.5547 19.4136Z" fill="url(#paint10_linear_86_448)"/>
<path id="Vector_12" d="M13.6144 22.6186L11.2895 17.4445C11.2766 17.4144 11.2703 17.3818 11.271 17.3491C11.2717 17.3164 11.2795 17.2841 11.2937 17.2546C11.3079 17.2251 11.3283 17.1989 11.3535 17.1778C11.3787 17.1566 11.4082 17.1411 11.4399 17.1321C11.5137 17.1213 11.5892 17.1339 11.6554 17.168C11.7217 17.2021 11.7755 17.2561 11.8091 17.3223L13.7101 22.605C13.6992 22.6194 13.683 22.629 13.6651 22.6315C13.6562 22.6328 13.6471 22.6323 13.6384 22.6301C13.6297 22.6279 13.6215 22.624 13.6144 22.6186Z" fill="url(#paint11_linear_86_448)"/>
<path id="Vector_13" d="M10.1407 24.7235L8.6774 20.2012C8.66691 20.1699 8.66376 20.1365 8.66819 20.1038C8.67263 20.071 8.68453 20.0397 8.70299 20.0122C8.72145 19.9847 8.74599 19.9618 8.77473 19.9451C8.80348 19.9284 8.83567 19.9185 8.86886 19.9161C8.94175 19.9112 9.01427 19.9298 9.0758 19.9689C9.13732 20.008 9.18462 20.0656 9.21076 20.1333L10.2501 24.6964C10.2371 24.7118 10.2195 24.7227 10.1999 24.7276C10.1802 24.7325 10.1595 24.7311 10.1407 24.7235Z" fill="url(#paint12_linear_86_448)"/>
<path id="Vector_14" d="M7.4194 27.3174L6.05182 24.2211C6.03907 24.1901 6.03329 24.1566 6.03487 24.1231C6.03646 24.0896 6.04537 24.0569 6.06098 24.0272C6.0766 23.9974 6.09855 23.9715 6.12531 23.951C6.15207 23.9306 6.18299 23.9161 6.21593 23.9088C6.28941 23.8999 6.36381 23.915 6.42793 23.9517C6.49205 23.9885 6.54243 24.0449 6.5715 24.1125L7.52881 27.3174C7.52244 27.3259 7.51418 27.3327 7.50469 27.3374C7.49519 27.3421 7.48472 27.3446 7.4741 27.3446C7.46349 27.3446 7.45302 27.3421 7.44352 27.3374C7.43403 27.3327 7.42577 27.3259 7.4194 27.3174Z" fill="url(#paint13_linear_86_448)"/>
<path id="Vector_15" d="M25.362 0.984999V1.09364L25.239 1.41957C25.1159 1.69118 24.9518 2.09859 24.7193 2.58748C24.0793 3.95784 23.353 5.28682 22.5448 6.56654C21.395 8.36761 20.0909 10.0669 18.6472 11.6456C17.8278 12.5426 16.9556 13.3906 16.0351 14.1852L15.3103 14.7963L14.5718 15.3938L13.0538 16.5346C12.0868 17.3107 11.1731 18.15 10.3186 19.0469C9.51809 19.9042 8.77352 20.8115 8.08945 21.763C6.89256 23.5019 5.88839 25.3642 5.09444 27.3174C4.50269 28.6941 4.02252 30.1155 3.65848 31.5681C3.52172 32.1113 3.42599 32.5323 3.37128 32.8175L3.28923 33.252C3.28923 33.3199 3.28923 33.3471 3.16615 33.3335C3.04306 33.3199 3.05674 33.252 3.07042 33.1977C3.08409 33.1434 3.07041 33.0347 3.1388 32.7496C3.20717 32.4644 3.26188 32.0162 3.38496 31.4866C3.74009 30.0131 4.19703 28.5656 4.75255 27.1544C5.528 25.1687 6.51363 23.2704 7.69285 21.4914C8.36442 20.4949 9.09988 19.5423 9.89466 18.6395C10.7407 17.6965 11.6549 16.816 12.6298 16.0049L14.1068 14.837L14.818 14.2395L15.5154 13.6284C16.3944 12.8218 17.2298 11.9695 18.0181 11.0752C19.4053 9.4967 20.6457 7.79674 21.7243 5.99616C22.4992 4.73221 23.1846 3.41626 23.7757 2.05785C23.9945 1.56896 24.1449 1.1887 24.2406 0.917097L24.3637 0.604746V0.50968C24.3926 0.44935 24.4337 0.395544 24.4843 0.35158C24.535 0.307619 24.5942 0.274435 24.6582 0.254072C24.7223 0.233713 24.7899 0.226603 24.8569 0.233194C24.9238 0.239786 24.9887 0.259935 25.0475 0.292395C25.1832 0.336279 25.2975 0.428724 25.3683 0.551729C25.4391 0.674738 25.4612 0.819502 25.4304 0.957834L25.362 0.984999Z" fill="url(#paint14_linear_86_448)"/>
<path id="Vector_16" style="mix-blend-mode:screen" d="M3.26179 34.2026C4.62937 28.852 16.0214 25.4025 20.507 20.8531C25.6902 15.6382 24.5004 7.05541 23.9123 4.13562C24.2132 3.56525 24.473 3.03561 24.6782 2.58746C24.8833 2.13931 25.0748 1.69115 25.1978 1.41954L25.3209 1.09361V0.984972C25.3517 0.846636 25.3296 0.701872 25.2588 0.578863C25.188 0.455858 25.0737 0.363413 24.938 0.319529C24.8792 0.287069 24.8143 0.266924 24.7474 0.260332C24.6804 0.25374 24.6128 0.260843 24.5488 0.281202C24.4847 0.301565 24.4255 0.334753 24.3748 0.378718C24.3242 0.422678 24.2831 0.476484 24.2542 0.536814V0.631876L24.1311 0.944231C24.0354 1.21584 23.885 1.59609 23.6662 2.08498C23.4473 2.57387 23.1465 3.22573 22.7909 3.93192C19.7412 5.67021 10.1271 6.75664 4.20542 13.2209C-2.37266 20.3914 2.91989 33.4286 3.23444 34.1619L3.26179 34.2026Z" fill="url(#paint15_radial_86_448)"/>
</g>
<defs>
<linearGradient id="paint0_linear_86_448" x1="-14.575" y1="18.3537" x2="17.4201" y2="2.38349" gradientUnits="userSpaceOnUse">
<stop offset="0.08" stop-color="#B0E355"/>
<stop offset="0.21" stop-color="#ADE152"/>
<stop offset="0.32" stop-color="#A2DA4A"/>
<stop offset="0.42" stop-color="#91CE3B"/>
<stop offset="0.52" stop-color="#79BE27"/>
<stop offset="0.61" stop-color="#5AA90D"/>
<stop offset="0.65" stop-color="#4A9F00"/>
<stop offset="1" stop-color="#346D0A"/>
</linearGradient>
<linearGradient id="paint1_linear_86_448" x1="1.4668" y1="32.7055" x2="0.401314" y2="1.33622" gradientUnits="userSpaceOnUse">
<stop offset="0.08" stop-color="#B0E355"/>
<stop offset="0.21" stop-color="#ADE152"/>
<stop offset="0.32" stop-color="#A2DA4A"/>
<stop offset="0.42" stop-color="#91CE3B"/>
<stop offset="0.52" stop-color="#79BE27"/>
<stop offset="0.61" stop-color="#5AA90D"/>
<stop offset="0.65" stop-color="#4A9F00"/>
<stop offset="1" stop-color="#346D0A"/>
</linearGradient>
<linearGradient id="paint2_linear_86_448" x1="-20.2593" y1="26.5153" x2="1.97629" y2="3.6052" gradientUnits="userSpaceOnUse">
<stop offset="0.08" stop-color="#B0E355"/>
<stop offset="0.21" stop-color="#ADE152"/>
<stop offset="0.32" stop-color="#A2DA4A"/>
<stop offset="0.42" stop-color="#91CE3B"/>
<stop offset="0.52" stop-color="#79BE27"/>
<stop offset="0.61" stop-color="#5AA90D"/>
<stop offset="0.65" stop-color="#4A9F00"/>
<stop offset="1" stop-color="#346D0A"/>
</linearGradient>
<linearGradient id="paint3_linear_86_448" x1="-20.2778" y1="26.4992" x2="1.96357" y2="3.58778" gradientUnits="userSpaceOnUse">
<stop offset="0.08" stop-color="#B0E355"/>
<stop offset="0.21" stop-color="#ADE152"/>
<stop offset="0.32" stop-color="#A2DA4A"/>
<stop offset="0.42" stop-color="#91CE3B"/>
<stop offset="0.52" stop-color="#79BE27"/>
<stop offset="0.61" stop-color="#5AA90D"/>
<stop offset="0.65" stop-color="#4A9F00"/>
<stop offset="1" stop-color="#346D0A"/>
</linearGradient>
<linearGradient id="paint4_linear_86_448" x1="-20.3063" y1="26.4673" x2="1.9295" y2="3.55721" gradientUnits="userSpaceOnUse">
<stop offset="0.08" stop-color="#B0E355"/>
<stop offset="0.21" stop-color="#ADE152"/>
<stop offset="0.32" stop-color="#A2DA4A"/>
<stop offset="0.42" stop-color="#91CE3B"/>
<stop offset="0.52" stop-color="#79BE27"/>
<stop offset="0.61" stop-color="#5AA90D"/>
<stop offset="0.65" stop-color="#4A9F00"/>
<stop offset="1" stop-color="#346D0A"/>
</linearGradient>
<linearGradient id="paint5_linear_86_448" x1="-20.2137" y1="26.5583" x2="2.02555" y2="3.65032" gradientUnits="userSpaceOnUse">
<stop offset="0.08" stop-color="#B0E355"/>
<stop offset="0.21" stop-color="#ADE152"/>
<stop offset="0.32" stop-color="#A2DA4A"/>
<stop offset="0.42" stop-color="#91CE3B"/>
<stop offset="0.52" stop-color="#79BE27"/>
<stop offset="0.61" stop-color="#5AA90D"/>
<stop offset="0.65" stop-color="#4A9F00"/>
<stop offset="1" stop-color="#346D0A"/>
</linearGradient>
<linearGradient id="paint6_linear_86_448" x1="-19.5812" y1="27.1758" x2="2.65804" y2="4.26786" gradientUnits="userSpaceOnUse">
<stop offset="0.08" stop-color="#B0E355"/>
<stop offset="0.21" stop-color="#ADE152"/>
<stop offset="0.32" stop-color="#A2DA4A"/>
<stop offset="0.42" stop-color="#91CE3B"/>
<stop offset="0.52" stop-color="#79BE27"/>
<stop offset="0.61" stop-color="#5AA90D"/>
<stop offset="0.65" stop-color="#4A9F00"/>
<stop offset="1" stop-color="#346D0A"/>
</linearGradient>
<linearGradient id="paint7_linear_86_448" x1="-18.2871" y1="28.4336" x2="3.95076" y2="5.52001" gradientUnits="userSpaceOnUse">
<stop offset="0.08" stop-color="#B0E355"/>
<stop offset="0.21" stop-color="#ADE152"/>
<stop offset="0.32" stop-color="#A2DA4A"/>
<stop offset="0.42" stop-color="#91CE3B"/>
<stop offset="0.52" stop-color="#79BE27"/>
<stop offset="0.61" stop-color="#5AA90D"/>
<stop offset="0.65" stop-color="#4A9F00"/>
<stop offset="1" stop-color="#346D0A"/>
</linearGradient>
<linearGradient id="paint8_linear_86_448" x1="-16.8854" y1="29.7967" x2="5.35603" y2="6.88526" gradientUnits="userSpaceOnUse">
<stop offset="0.08" stop-color="#B0E355"/>
<stop offset="0.21" stop-color="#ADE152"/>
<stop offset="0.32" stop-color="#A2DA4A"/>
<stop offset="0.42" stop-color="#91CE3B"/>
<stop offset="0.52" stop-color="#79BE27"/>
<stop offset="0.61" stop-color="#5AA90D"/>
<stop offset="0.65" stop-color="#4A9F00"/>
<stop offset="1" stop-color="#346D0A"/>
</linearGradient>
<linearGradient id="paint9_linear_86_448" x1="-16.9122" y1="29.7705" x2="5.32913" y2="6.85904" gradientUnits="userSpaceOnUse">
<stop offset="0.08" stop-color="#B0E355"/>
<stop offset="0.21" stop-color="#ADE152"/>
<stop offset="0.32" stop-color="#A2DA4A"/>
<stop offset="0.42" stop-color="#91CE3B"/>
<stop offset="0.52" stop-color="#79BE27"/>
<stop offset="0.61" stop-color="#5AA90D"/>
<stop offset="0.65" stop-color="#4A9F00"/>
<stop offset="1" stop-color="#346D0A"/>
</linearGradient>
<linearGradient id="paint10_linear_86_448" x1="-16.9089" y1="29.7726" x2="5.33247" y2="6.86118" gradientUnits="userSpaceOnUse">
<stop offset="0.08" stop-color="#B0E355"/>
<stop offset="0.21" stop-color="#ADE152"/>
<stop offset="0.32" stop-color="#A2DA4A"/>
<stop offset="0.42" stop-color="#91CE3B"/>
<stop offset="0.52" stop-color="#79BE27"/>
<stop offset="0.61" stop-color="#5AA90D"/>
<stop offset="0.65" stop-color="#4A9F00"/>
<stop offset="1" stop-color="#346D0A"/>
</linearGradient>
<linearGradient id="paint11_linear_86_448" x1="-17.0743" y1="29.6125" x2="5.16704" y2="6.70107" gradientUnits="userSpaceOnUse">
<stop offset="0.08" stop-color="#B0E355"/>
<stop offset="0.21" stop-color="#ADE152"/>
<stop offset="0.32" stop-color="#A2DA4A"/>
<stop offset="0.42" stop-color="#91CE3B"/>
<stop offset="0.52" stop-color="#79BE27"/>
<stop offset="0.61" stop-color="#5AA90D"/>
<stop offset="0.65" stop-color="#4A9F00"/>
<stop offset="1" stop-color="#346D0A"/>
</linearGradient>
<linearGradient id="paint12_linear_86_448" x1="-17.3968" y1="29.3022" x2="4.84671" y2="6.38727" gradientUnits="userSpaceOnUse">
<stop offset="0.08" stop-color="#B0E355"/>
<stop offset="0.21" stop-color="#ADE152"/>
<stop offset="0.32" stop-color="#A2DA4A"/>
<stop offset="0.42" stop-color="#91CE3B"/>
<stop offset="0.52" stop-color="#79BE27"/>
<stop offset="0.61" stop-color="#5AA90D"/>
<stop offset="0.65" stop-color="#4A9F00"/>
<stop offset="1" stop-color="#346D0A"/>
</linearGradient>
<linearGradient id="paint13_linear_86_448" x1="-17.0824" y1="29.6026" x2="5.15897" y2="6.69114" gradientUnits="userSpaceOnUse">
<stop offset="0.08" stop-color="#B0E355"/>
<stop offset="0.21" stop-color="#ADE152"/>
<stop offset="0.32" stop-color="#A2DA4A"/>
<stop offset="0.42" stop-color="#91CE3B"/>
<stop offset="0.52" stop-color="#79BE27"/>
<stop offset="0.61" stop-color="#5AA90D"/>
<stop offset="0.65" stop-color="#4A9F00"/>
<stop offset="1" stop-color="#346D0A"/>
</linearGradient>
<linearGradient id="paint14_linear_86_448" x1="-17.9612" y1="28.746" x2="4.27455" y2="5.83591" gradientUnits="userSpaceOnUse">
<stop offset="0.08" stop-color="#B0E355"/>
<stop offset="0.21" stop-color="#ADE152"/>
<stop offset="0.32" stop-color="#A2DA4A"/>
<stop offset="0.42" stop-color="#91CE3B"/>
<stop offset="0.52" stop-color="#79BE27"/>
<stop offset="0.61" stop-color="#5AA90D"/>
<stop offset="0.65" stop-color="#4A9F00"/>
<stop offset="1" stop-color="#346D0A"/>
</linearGradient>
<radialGradient id="paint15_radial_86_448" cx="0" cy="0" r="1" gradientUnits="userSpaceOnUse" gradientTransform="translate(19.3596 21.5442) rotate(162.078) scale(22.022 21.8975)">
<stop offset="0.54" stop-color="#00435C"/>
<stop offset="0.58" stop-color="#08475D"/>
<stop offset="0.62" stop-color="#1E5161"/>
<stop offset="0.68" stop-color="#416166"/>
<stop offset="0.75" stop-color="#72786E"/>
<stop offset="0.83" stop-color="#B09478"/>
<stop offset="0.87" stop-color="#D3A47E"/>
</radialGradient>
</defs>
</svg>
