<svg width="248" height="208" viewBox="0 0 248 208" fill="none" xmlns="http://www.w3.org/2000/svg">
<path id="path558" fill-rule="evenodd" clip-rule="evenodd" d="M246.743 176.906L236.829 176.125L226.712 178.5L218.729 185.996L219.686 188.879L220.642 191.796L221.599 194.679L220.054 197.8L218.472 200.955L216.964 204.177L203.132 205.194L192.059 205.941L181.096 206.382L167.779 206.585L149.386 206.687H123.304L117.676 204.007L114.585 202.21L112.249 200.802L110.281 184.334L105.058 175.481L97.2588 169.952L93.1019 158.759L88.761 151.432L82.3233 146.785L65.622 144.682L49.1782 141.799L32.9919 137.491L17.1 131.114L1.26318 122.21L7.13074 104.521L10.8462 92.6495L14.8192 78.1319L10.6255 71.8229L7.42505 68.9736L3.2313 66.9724L13.4213 62.054L25.0092 59.8832L36.7074 52.6244L36.8546 49.4021L37.0018 46.2475L37.2225 43.1269L49.0311 28.9825L60.4351 18.23L73.9359 11.4461L74.598 7.61318L74.6717 5.20489L74.4509 2.18606L77.3939 1.77902L80.3368 1.43983L83.2798 1.20239L93.9113 6.83303L105.352 13.0403L116.719 14.8211L120.619 16.7036L125.18 19.7564L128.454 25.1835L125.989 30.2714L124.076 35.2915L123.304 42.1433L128.638 44.2802L134.634 48.3166L138.276 56.8643L144.456 59.6458L150.637 62.4611L156.817 65.3782L166.86 74.1633L178.889 75.9271L190.918 84.3052L190.367 88.5791L189.852 92.853L189.41 97.059L194.229 98.4497L199.122 99.8404L203.941 101.333L201.844 106.896L198.46 109.168L195.002 109.067L200.41 130.47L211.63 143.393L224.726 150.991L234.07 163.134L240.103 170.766L246.743 176.906Z" fill="#F2F2F2" stroke="#CDCDCD" stroke-width="2" stroke-linecap="round" stroke-linejoin="round" stroke-dasharray="10 10"/>
</svg>
