<svg width="129" height="160" viewBox="0 0 129 160" fill="none" xmlns="http://www.w3.org/2000/svg">
<path id="path3438" fill-rule="evenodd" clip-rule="evenodd" d="M86.2421 158.182L88.3757 157.012L90.5462 155.079L92.6062 153.79L102.244 136.118L111.515 125.128L124.611 118.412L122.772 116.987L120.711 115.63L118.651 114.375L118.762 112.849L118.909 111.323L119.056 109.932L121.705 106.811L124.353 103.758L127.039 100.638L126.561 97.1781L126.046 93.7522L125.604 90.3942L120.16 81.6769L118.394 71.0261L117.695 57.9332L109.933 55.5249L106.843 49.9621L105.629 37.2423L104.01 34.3252L102.502 31.5099L100.994 28.7285L100.111 18.1456L97.8668 9.56395L95.1261 1.50806L88.155 3.22098L81.1654 5.22223L74.3966 7.29134L64.7952 14.584L55.4881 21.8767L45.2613 26.4898L30.0683 18.8918L15.7582 13.0916L1.87109 9.15691L10.8655 20.6217L14.8017 33.9521L13.6981 49.0802L7.03968 65.7008L16.7515 69.1266L26.4632 71.7724L36.2118 73.9771L35.7336 78.1153L34.2621 85.1706L33.416 92.9043L40.4423 98.4671L49.9333 105.014L55.7825 109.932L54.3846 117.665L52.9499 125.467L51.6255 133.302L61.4109 143.953L73.477 150.907L86.2421 158.182Z" fill="#F2F2F2" stroke="#CDCDCD" stroke-width="2" stroke-linecap="round" stroke-linejoin="round" stroke-dasharray="10 10"/>
</svg>
