<svg width="187" height="161" viewBox="0 0 187 161" fill="none" xmlns="http://www.w3.org/2000/svg">
<path id="path2514" fill-rule="evenodd" clip-rule="evenodd" d="M185.137 91.9743L174.799 81.154L164.941 69.6553L156.774 56.0196L158.797 53.4756L160.747 50.9656L162.77 48.4895V46.9292V45.4706V44.0121L155.523 39.806L148.092 37.4995L140.624 36.3802L130.986 35.8035L121.422 35.1252L112.115 33.0222L109.907 27.2219L107.737 21.4895L105.566 15.8249L99.3494 17.2157L93.6107 19.59L88.3133 18.335V14.8413V11.4154V8.0913L73.6353 2.52848L59.3988 2.08751L45.4197 2.96944L31.5143 1.30737L31.2935 4.42797L31.1832 7.5825L31.1096 10.7709L28.792 13.281L26.4745 15.8249L24.1569 18.335L23.9362 20.3363L23.789 22.3714L23.7154 24.5084L24.2672 25.5259L24.8558 26.6453L25.518 27.7985L15.3648 41.9769L9.25816 50.1854L3.09636 57.5799L1.05469 68.8412V79.6276L1.84564 92.958L6.94064 94.1112L12.9001 95.2645L18.4549 96.4178L25.4813 105.406L32.5076 109.273L42.3297 107.408L44.6105 95.1288L46.082 89.159L47.8845 84.4103L63.7765 87.8022L81.2503 98.1477L96.7744 110.155L98.0987 114.802L99.0552 120.297L100.453 131.389L108.509 140.988L119.619 147.636L130.361 153.979L135.953 154.59L137.755 156.795L140.293 159.271L148.828 157.405L156.332 151.435L161.924 139.937L157.73 128.336L157.031 121.179L160.968 111.682L168.987 105.101L177.044 98.5547L185.137 91.9743Z" fill="#F2F2F2" stroke="#CDCDCD" stroke-width="2" stroke-linecap="round" stroke-linejoin="round" stroke-dasharray="10 10"/>
</svg>
