<svg width="146" height="185" viewBox="0 0 146 185" fill="none" xmlns="http://www.w3.org/2000/svg">
<path id="path1722" fill-rule="evenodd" clip-rule="evenodd" d="M114.591 164.886V167.634V170.517V173.4L107.087 177.097L99.3983 173.162L92.1881 168.38L86.4125 178.149L80.637 182.49L73.1324 183.644L71.5138 181.303L70.1527 179.031L68.9755 176.86L71.0356 157.492L69.4537 149.928L60.9559 143.415L43.0407 137.683L29.8709 133.511L20.8398 129.678L22.2193 127.371L23.5804 124.522L24.684 121.198L19.4235 107.63L13.1697 99.1501L5.99624 91.9931L10.2267 82.1225L11.6614 73.7783L12.0661 62.2117L8.49775 55.4956L4.92942 48.9152L1.36108 42.3349L5.33408 32.7695L10.705 24.9002L16.5909 20.1176L21.9986 20.0158L25.898 26.0535L27.4798 39.8248L34.6901 43.7256L42.1578 46.507L50.3613 48.5082L54.8861 28.6653L58.6016 11.2985L68.4605 1.32617L76.0386 9.60254L85.1986 16.6917L94.5057 24.5271L95.5725 23.9505L96.6026 23.3738L97.7797 22.7972L97.8901 20.6603L97.9637 18.5912L98.1844 16.59L101.458 18.1163L105.027 19.6088L108.062 18.8883L108.301 20.9995L108.779 22.5258L109.441 23.5434L111.06 27.9869L111.648 30.8701L111.759 34.7708L120.808 48.8813L129.858 51.9002L143.396 50.272L143.69 52.1715L143.984 54.1049L144.315 56.0723L139.423 69.8775L135.302 83.2757L132.396 96.8096L131.109 111.022L132.028 126.354L135.486 143.415L136.112 150.742V154.337L135.486 157.152L126.657 157.051L121.213 156.406L114.591 154.642L113.635 156.237L112.678 157.933L111.759 159.662L112.678 161.426L113.635 163.122L114.591 164.886Z" fill="#F2F2F2" stroke="#CDCDCD" stroke-width="2" stroke-linecap="round" stroke-linejoin="round" stroke-dasharray="10 10"/>
</svg>
