<svg width="178" height="117" viewBox="0 0 178 117" fill="none" xmlns="http://www.w3.org/2000/svg">
<path id="path1854" fill-rule="evenodd" clip-rule="evenodd" d="M62.84 1.67773L71.8711 5.5106L85.0409 9.68271L102.956 15.4151L111.454 21.9277L113.036 29.4917L110.976 48.8598L112.153 51.0306L113.514 53.3032L115.133 55.6437L122.637 54.4904L128.413 50.1487L134.188 40.3799L141.398 45.1625L149.087 49.0972L156.592 45.4V42.5168V39.6336L156.358 36.8862L163.507 36.7505L169.945 37.7342L176.125 42.8899L174.985 47.1977L173.845 52.4891L172.152 56.6782C170.913 59.2885 170.298 62.1528 169.686 65.0176C169.134 68.2039 168.583 71.3906 168.031 74.5767C167.43 76.8247 166.83 79.0727 166.23 81.3207C163.274 83.6612 160.319 86.0016 157.364 88.3421C154.421 88.6926 151.478 89.0431 148.535 89.3936C145.617 89.2579 142.698 89.1222 139.78 88.9866C136.947 89.8911 134.115 90.7956 131.282 91.7001C128.535 95.1373 125.789 98.5745 123.042 102.012C123.054 103.463 123.068 104.914 123.078 106.366C122.98 107.982 122.881 109.599 122.784 111.216C122.797 112.693 122.809 114.17 122.803 115.478L118.848 114.392L114.47 113.375L109.541 112.255L98.0267 109.644L88.131 110.966L77.6467 115.274L71.724 109.203L66.0588 98.6197L61.9755 90.0381L46.3778 81.3207L31.2952 77.7592L16.3596 83.0846L10.6209 89.7667L8.52402 91.0218L7.64113 91.6323L4.29352 88.376L2.71169 85.866L1.57129 82.1009L7.64113 71.8572L14.1892 63.2755L20.6637 54.1173L22.4295 33.1889L26.4025 23.4541L35.9303 11.9553L44.9799 10.836L54.4709 8.42771L62.84 1.67773Z" fill="#F2F2F2" stroke="#CDCDCD" stroke-width="2" stroke-linecap="round" stroke-linejoin="round" stroke-dasharray="10 10"/>
</svg>
