<svg width="137" height="109" viewBox="0 0 137 109" fill="none" xmlns="http://www.w3.org/2000/svg">
<path id="path918" fill-rule="evenodd" clip-rule="evenodd" d="M107.096 107.58L113.258 100.185L119.365 91.9768L129.518 77.7984L128.856 76.6452L128.267 75.5258L127.716 74.5082L127.789 72.3713L127.936 70.3361L128.157 68.3349L130.475 65.8248L132.792 63.2809L135.11 60.7708L135.183 57.5824L135.294 54.4279L135.753 51.5108L127.017 36.5523L118.004 22.6453L108.586 11.1127L102.811 8.05993L96.8145 4.93931L90.9506 1.92364L79.6718 7.24584L68.7461 4.29487L58.2618 1.64913L51.6402 5.31243L45.6071 4.56621L39.7028 1.36084L26.5146 8.12774L17.2443 19.1177L7.60615 36.7898L5.54608 38.0787L3.37565 40.0121L1.49951 41.513L6.13466 44.8965L9.29834 50.9342L10.733 59.7872L9.04084 61.9919L7.34864 64.2645L5.69322 66.5711L14.191 75.1527L23.3877 79.6979L32.9891 81.8349L42.7009 83.2934L52.3759 85.8713L61.683 91.1966L70.3279 100.965L82.6515 103.17L94.9016 105.443L107.096 107.58Z" fill="#F2F2F2" stroke="#CDCDCD" stroke-width="2" stroke-linecap="round" stroke-linejoin="round" stroke-dasharray="10 10"/>
</svg>
