<svg width="113" height="159" viewBox="0 0 113 159" fill="none" xmlns="http://www.w3.org/2000/svg">
<path id="path3198" fill-rule="evenodd" clip-rule="evenodd" d="M20.1523 143.678L21.8445 139.489L22.9849 134.198L24.1253 129.89L17.9451 124.734L11.5073 123.75L4.358 123.886L3.63493 122.122L2.67846 120.426L1.75879 118.662L2.67846 116.933L3.63493 115.237L4.59139 113.642L11.213 115.406L16.6575 116.051L25.4864 116.152L26.1118 113.337V109.742L25.4864 102.415L22.0284 85.3536L21.1087 70.0219L22.3963 55.8097L25.3025 42.2758L29.4226 28.8776L34.3153 15.0723L33.9842 13.105L33.6899 11.1716L33.5795 9.47563L48.3311 6.93167L62.7516 8.28844H77.6135L89.3854 1.64022L98.9132 1.33496L111.163 10.0183L109.25 22.0598L108.331 33.7959L109.25 47.5333L109.177 59.8122L108.846 65.6463L107.889 69.9541L101.378 79.6551L94.9034 90.4754L90.4522 101.923L90.3418 105.298L90.489 108.995L90.6729 112.659L97.221 115.779L104.174 117.916L109.802 124.632L107.264 130.059L104.762 135.554L102.334 141.117L95.9702 139.93L91.5926 140.507L86.8471 145.154L81.9176 145.73L76.9882 146.307L72.0587 146.884L69.1525 150.377L66.2831 154.38L63.6345 157.161L48.3311 153.26L36.9271 149.733L20.1523 143.678Z" fill="#F2F2F2" stroke="#CDCDCD" stroke-width="2" stroke-linecap="round" stroke-linejoin="round" stroke-dasharray="10 10"/>
</svg>
