<svg width="162" height="206" viewBox="0 0 162 206" fill="none" xmlns="http://www.w3.org/2000/svg">
<path id="path1038" fill-rule="evenodd" clip-rule="evenodd" d="M67.3746 187.784L81.7583 192.091L96.0684 197.892L111.261 205.49L121.488 200.877L130.795 193.584L140.397 186.291L147.165 184.222L154.155 182.221L161.126 180.508L158.937 164.074L156.399 156.069L149.63 147.792L137.527 141.28L129.287 133.343L124.542 116.078L123.291 114.924L122.04 113.771L120.826 112.618V111.465V110.277V109.124L122.298 108.073L123.953 107.869L127.374 108.378L125.572 92.9785L121.488 85.6519L113.873 81.9208L117.405 70.7273L116.485 65.0288L110.562 60.4497L103.867 51.0879L95.9213 41.5226L79.8454 23.5113L73.6652 22.9347L67.4482 22.4259L61.2312 21.951L52.8438 16.1508L44.4931 10.4184L36.1425 4.75384L28.7483 3.1257L20.8759 2.04028L12.3778 0.810791L11.6423 14.387L12.3413 25.9535L14.6956 40.2676L15.2474 60.2462L15.1739 74.6281L13.2977 85.8215L8.73614 96.3366L0.275146 108.717L1.96735 113.771L3.65955 118.961L5.35175 124.151L7.11752 146.978L10.0973 159.834L15.3946 165.058L24.1499 165.261L37.5036 162.819L38.2393 167.194L38.3864 171.638L38.8647 175.573L48.4661 179.846L58.1042 184.154L67.7792 188.53" fill="#118BDD"/>
</svg>
