<svg width="155" height="88" viewBox="0 0 155 88" fill="none" xmlns="http://www.w3.org/2000/svg">
<path id="path13405" fill-rule="evenodd" clip-rule="evenodd" d="M114.182 86.1413L101.913 77.3348L92.3854 77.64L80.6136 84.2883H65.7516L51.3311 82.9315L36.5796 85.4754L22.858 86.9001L13.8084 83.8812L4.75883 69.7707L4.64847 65.8699L4.05989 62.9868L2.44126 58.5433L1.77909 57.5257L1.30086 55.9994L1.06177 53.8882L2.4413 52.6074L3.39776 50.8097L4.20707 48.2996L16.1628 43.2117L23.0052 33.5447L26.5736 13.3286L33.2688 8.51206L39.8169 4.50954L47.1007 1.93164L61.1901 7.39271L75.9417 10.7507L91.0611 13.9731L106.254 19.1289L105.739 22.2494L105.261 25.404L104.783 28.5924L111.883 33.9856L118.32 36.9705L126.781 37.3097L126.892 38.87L127.039 40.5999L127.186 42.3298L132.115 46.2645L137.082 50.233L142.011 54.3373L145.837 59.6288L149.7 64.4793L153.654 69.033L141.202 77.7418L126.009 83.3046L114.182 86.1413Z" fill="#F2F2F2" stroke="#CDCDCD" stroke-width="2" stroke-linecap="round" stroke-linejoin="round" stroke-dasharray="10 10"/>
</svg>
