<svg width="143" height="172" viewBox="0 0 143 172" fill="none" xmlns="http://www.w3.org/2000/svg">
<path id="path3402" fill-rule="evenodd" clip-rule="evenodd" d="M1.45215 109.923L5.90337 98.4754L12.3779 87.655L18.8892 77.9541L19.8456 73.6463L20.1767 67.8121L20.2503 55.5333L19.3306 41.7958L20.2503 30.0597L22.004 18.1414L34.0086 15.3047L49.2016 9.74189L61.7827 1.14331L73.996 12.5911L86.8347 19.409L100.299 21.071L115.271 17.1533L115.712 23.2419V29.7883V35.9956L113.174 41.2531L111.923 45.7644L111.077 53.1928L117.625 65.4039L124.1 77.5809L130.648 89.9276L136.571 105.361L140.102 116.724L141.5 127.409L141.059 140.807L139.03 160.438L134.658 164.652L130.685 165.093L126.969 164.347L126.417 162.889L125.902 161.498L125.461 160.107L116.853 160.175L112.99 160.616L110.562 161.871L100.85 170.656L86.6875 168.587L74.8053 164.347L69.1769 152.34L63.5853 140.4L57.9937 128.426L52.9907 127.477L47.9876 126.662L43.0582 125.882L42.1017 121.235L41.2188 116.69L40.3727 112.145L27.2766 111.263L14.254 110.415L1.45215 109.923Z" fill="#F2F2F2" stroke="#CDCDCD" stroke-width="2" stroke-linecap="round" stroke-linejoin="round" stroke-dasharray="10 10"/>
</svg>
