<svg width="151" height="195" viewBox="0 0 151 195" fill="none" xmlns="http://www.w3.org/2000/svg">
<path id="path1566" fill-rule="evenodd" clip-rule="evenodd" d="M70.2555 193.54L65.4548 189.758L60.4518 185.722L55.5224 181.821L55.3384 178.904L55.1913 176.021L55.0809 173.104L51.954 171.95L48.7903 170.797L45.737 169.644L44.1552 173.104L42.6101 176.597L41.1019 180.057L36.5771 179.684L32.0523 179.379L29.03 179.26L31.059 159.807L31.5005 146.409L30.1026 135.724L26.571 124.361L20.6483 108.928L14.1002 96.5812L7.62572 84.4041L1.07764 72.193L1.92374 64.7647L3.1745 60.2533L5.71279 54.9959V48.7886V42.2421L5.27133 36.1535L6.48528 35.3225L8.21426 34.4406L9.90647 33.5248L17.1167 21.4833L23.0026 19.109L33.119 19.7873L37.7174 15.5813L42.0951 9.2723L42.4078 1.45386L47.1349 4.89669L50.2986 10.9343L51.7332 19.7873L50.041 21.9921L48.3489 24.2647L46.6934 26.5713L55.1912 35.1529L64.388 39.6981L73.9894 41.8351L83.7011 43.2936L93.3761 45.8715L102.683 51.1969L111.328 60.9657L123.652 63.1705L135.902 65.4431L148.225 67.7496L146.055 78.8413V89.6277L147.269 102.958H145.724H144.142H142.634L143.848 112.252L145.062 121.682L146.313 131.145L147.379 132.163L148.483 133.282L149.587 134.435L148.777 136.437L148.042 138.506L147.269 140.643L145.356 141.219L143.517 141.796L141.677 142.373L141.236 152.243L138.109 158.043L132.775 162.86L126.043 177.615L118.06 182.669L106.693 184.161L96.1352 177.852L85.8716 174.562L76.8588 178.361L70.2555 193.54Z" fill="#F2F2F2" stroke="#CDCDCD" stroke-width="2" stroke-linecap="round" stroke-linejoin="round" stroke-dasharray="10 10"/>
</svg>
