<svg width="40" height="40" viewBox="0 0 40 40" fill="none" xmlns="http://www.w3.org/2000/svg">
<g id="sand-clock 1">
<path id="Vector" d="M29.7251 11.0724V8.41871H30.1168C31.0804 8.42134 31.8667 7.64849 31.8813 6.68521V2.93609C31.867 1.97222 31.081 1.19878 30.1168 1.19995H9.08311C8.11895 1.19878 7.33291 1.97222 7.31885 2.93609V6.68521C7.3335 7.64849 8.11953 8.42134 9.08311 8.41871H9.4751V11.0724C9.47363 12.3293 10.0464 13.5178 11.0302 14.2998L18.0831 19.9385L11.1688 25.3019C10.1565 26.0818 9.56475 27.2891 9.56885 28.5674V31.4812H9.08311C8.11953 31.4786 7.3335 32.2514 7.31885 33.2147V36.9638C7.33291 37.9277 8.11895 38.7012 9.08311 38.7H30.1168C31.081 38.7012 31.867 37.9277 31.8813 36.9638V33.2147C31.8667 32.2514 31.0804 31.4786 30.1168 31.4812H29.8188V28.5858C29.813 27.295 29.2083 26.08 28.182 25.2969L21.1271 19.9312L28.1712 14.2995C29.1547 13.5175 29.7271 12.3287 29.7251 11.0724ZM9.19385 3.07495H30.0063V6.54371H9.19385V3.07495ZM30.0063 36.825H9.19385V33.3562H10.3446C10.3985 33.3562 10.453 33.3715 10.5096 33.3715C10.5658 33.3715 10.6209 33.3562 10.6748 33.3562H28.7041C28.7577 33.3562 28.8128 33.3715 28.869 33.3715C28.9256 33.3715 28.9804 33.3562 29.034 33.3562H30.0063V36.825ZM27.9438 28.5858V31.4812H11.4438V28.5674C11.4424 27.8689 11.7655 27.2094 12.3192 26.7835L19.6048 21.1321L27.0465 26.789C27.6078 27.2168 27.9395 27.8803 27.9438 28.5858ZM26.9984 12.8352L19.6019 18.7497L12.2026 12.8352C11.6642 12.4087 11.3501 11.7594 11.3501 11.0724V8.41871H27.8501V11.0724C27.8501 11.7594 27.5366 12.4084 26.9984 12.8352Z" fill="#E4E4E4"/>
</g>
</svg>
